<mxfile host="Electron" modified="2024-06-01T02:33:26.652Z" agent="Mozilla/5.0 (Windows NT 10.0; Win64; x64) AppleWebKit/537.36 (KHTML, like Gecko) draw.io/24.2.5 Chrome/120.0.6099.109 Electron/28.1.0 Safari/537.36" etag="JHiTbxNKzg31OxYy5GN4" version="24.2.5" type="device">
  <diagram name="Page-1" id="jF8E4dc1Fizrq1LeKnRA">
    <mxGraphModel dx="1195" dy="697" grid="1" gridSize="10" guides="1" tooltips="1" connect="1" arrows="1" fold="1" page="1" pageScale="1" pageWidth="827" pageHeight="1169" math="0" shadow="0">
      <root>
        <mxCell id="0" />
        <mxCell id="1" parent="0" />
        <mxCell id="V9az3QKuatXGRMzXTHM4-16" style="edgeStyle=orthogonalEdgeStyle;rounded=0;orthogonalLoop=1;jettySize=auto;html=1;exitX=0.25;exitY=1;exitDx=0;exitDy=0;entryX=0;entryY=0.5;entryDx=0;entryDy=0;endArrow=none;endFill=0;" parent="1" source="V9az3QKuatXGRMzXTHM4-1" target="V9az3QKuatXGRMzXTHM4-12" edge="1">
          <mxGeometry relative="1" as="geometry">
            <Array as="points">
              <mxPoint x="310" y="360" />
              <mxPoint x="310" y="450" />
            </Array>
          </mxGeometry>
        </mxCell>
        <mxCell id="6K85rVYa6wecsWMBO-P3-14" value="XSDN" style="edgeLabel;html=1;align=center;verticalAlign=middle;resizable=0;points=[];rotation=90;" vertex="1" connectable="0" parent="V9az3QKuatXGRMzXTHM4-16">
          <mxGeometry x="-0.0692" y="-1" relative="1" as="geometry">
            <mxPoint x="1" y="-11" as="offset" />
          </mxGeometry>
        </mxCell>
        <mxCell id="V9az3QKuatXGRMzXTHM4-17" style="edgeStyle=orthogonalEdgeStyle;rounded=0;orthogonalLoop=1;jettySize=auto;html=1;exitX=0.25;exitY=1;exitDx=0;exitDy=0;entryX=0;entryY=0.5;entryDx=0;entryDy=0;endArrow=none;endFill=0;" parent="1" source="V9az3QKuatXGRMzXTHM4-1" target="V9az3QKuatXGRMzXTHM4-13" edge="1">
          <mxGeometry relative="1" as="geometry">
            <Array as="points">
              <mxPoint x="300" y="360" />
              <mxPoint x="300" y="500" />
            </Array>
          </mxGeometry>
        </mxCell>
        <mxCell id="6K85rVYa6wecsWMBO-P3-15" value="XSDN" style="edgeLabel;html=1;align=center;verticalAlign=middle;resizable=0;points=[];rotation=90;" vertex="1" connectable="0" parent="V9az3QKuatXGRMzXTHM4-17">
          <mxGeometry x="-0.0117" relative="1" as="geometry">
            <mxPoint as="offset" />
          </mxGeometry>
        </mxCell>
        <mxCell id="6K85rVYa6wecsWMBO-P3-21" style="rounded=0;orthogonalLoop=1;jettySize=auto;html=1;exitX=1;exitY=0.5;exitDx=0;exitDy=0;endArrow=none;endFill=0;entryX=0;entryY=0.5;entryDx=0;entryDy=0;" edge="1" parent="1" source="V9az3QKuatXGRMzXTHM4-1" target="6K85rVYa6wecsWMBO-P3-19">
          <mxGeometry relative="1" as="geometry" />
        </mxCell>
        <mxCell id="6K85rVYa6wecsWMBO-P3-22" style="rounded=0;orthogonalLoop=1;jettySize=auto;html=1;exitX=1;exitY=0.75;exitDx=0;exitDy=0;entryX=0;entryY=0.5;entryDx=0;entryDy=0;endArrow=none;endFill=0;" edge="1" parent="1" source="V9az3QKuatXGRMzXTHM4-1" target="6K85rVYa6wecsWMBO-P3-20">
          <mxGeometry relative="1" as="geometry" />
        </mxCell>
        <mxCell id="V9az3QKuatXGRMzXTHM4-1" value="Nucleo&lt;div&gt;L432KC&lt;/div&gt;" style="rounded=0;whiteSpace=wrap;html=1;" parent="1" vertex="1">
          <mxGeometry x="280" y="240" width="200" height="120" as="geometry" />
        </mxCell>
        <mxCell id="V9az3QKuatXGRMzXTHM4-6" style="rounded=0;orthogonalLoop=1;jettySize=auto;html=1;exitX=1;exitY=0.75;exitDx=0;exitDy=0;entryX=0;entryY=0.5;entryDx=0;entryDy=0;endArrow=none;endFill=0;" parent="1" source="V9az3QKuatXGRMzXTHM4-2" target="V9az3QKuatXGRMzXTHM4-3" edge="1">
          <mxGeometry relative="1" as="geometry" />
        </mxCell>
        <mxCell id="V9az3QKuatXGRMzXTHM4-7" style="rounded=0;orthogonalLoop=1;jettySize=auto;html=1;exitX=1;exitY=0.25;exitDx=0;exitDy=0;entryX=0;entryY=0.5;entryDx=0;entryDy=0;endArrow=none;endFill=0;" parent="1" source="V9az3QKuatXGRMzXTHM4-2" target="V9az3QKuatXGRMzXTHM4-5" edge="1">
          <mxGeometry relative="1" as="geometry" />
        </mxCell>
        <mxCell id="V9az3QKuatXGRMzXTHM4-2" value="Driver&lt;div&gt;Moteurs CC&lt;/div&gt;" style="rounded=0;whiteSpace=wrap;html=1;" parent="1" vertex="1">
          <mxGeometry x="530" y="220" width="120" height="90" as="geometry" />
        </mxCell>
        <mxCell id="V9az3QKuatXGRMzXTHM4-3" value="MotD" style="ellipse;whiteSpace=wrap;html=1;" parent="1" vertex="1">
          <mxGeometry x="720" y="260" width="70" height="40" as="geometry" />
        </mxCell>
        <mxCell id="V9az3QKuatXGRMzXTHM4-5" value="MotG" style="ellipse;whiteSpace=wrap;html=1;" parent="1" vertex="1">
          <mxGeometry x="720" y="210" width="70" height="40" as="geometry" />
        </mxCell>
        <mxCell id="V9az3QKuatXGRMzXTHM4-8" value="" style="endArrow=none;html=1;rounded=0;exitX=1;exitY=0.25;exitDx=0;exitDy=0;entryX=0;entryY=0.5;entryDx=0;entryDy=0;" parent="1" source="V9az3QKuatXGRMzXTHM4-1" target="V9az3QKuatXGRMzXTHM4-2" edge="1">
          <mxGeometry width="50" height="50" relative="1" as="geometry">
            <mxPoint x="500" y="330" as="sourcePoint" />
            <mxPoint x="550" y="280" as="targetPoint" />
          </mxGeometry>
        </mxCell>
        <mxCell id="V9az3QKuatXGRMzXTHM4-9" value="" style="endArrow=none;html=1;rounded=0;entryX=0.75;entryY=1;entryDx=0;entryDy=0;strokeWidth=2;strokeColor=#82b366;fillColor=#d5e8d4;" parent="1" target="V9az3QKuatXGRMzXTHM4-1" edge="1">
          <mxGeometry width="50" height="50" relative="1" as="geometry">
            <mxPoint x="430" y="610" as="sourcePoint" />
            <mxPoint x="430" y="370" as="targetPoint" />
          </mxGeometry>
        </mxCell>
        <mxCell id="V9az3QKuatXGRMzXTHM4-10" value="&lt;font color=&quot;#009900&quot;&gt;I2C&lt;/font&gt;" style="edgeLabel;html=1;align=center;verticalAlign=middle;resizable=0;points=[];" parent="V9az3QKuatXGRMzXTHM4-9" vertex="1" connectable="0">
          <mxGeometry x="0.2518" y="-2" relative="1" as="geometry">
            <mxPoint y="-52" as="offset" />
          </mxGeometry>
        </mxCell>
        <mxCell id="V9az3QKuatXGRMzXTHM4-15" style="edgeStyle=orthogonalEdgeStyle;rounded=0;orthogonalLoop=1;jettySize=auto;html=1;exitX=1;exitY=0.5;exitDx=0;exitDy=0;fillColor=#d5e8d4;strokeColor=#82b366;endArrow=none;endFill=0;strokeWidth=2;" parent="1" source="V9az3QKuatXGRMzXTHM4-12" edge="1">
          <mxGeometry relative="1" as="geometry">
            <mxPoint x="430" y="449.8571428571429" as="targetPoint" />
          </mxGeometry>
        </mxCell>
        <mxCell id="V9az3QKuatXGRMzXTHM4-12" value="ToF fixe" style="ellipse;whiteSpace=wrap;html=1;" parent="1" vertex="1">
          <mxGeometry x="330" y="430" width="70" height="40" as="geometry" />
        </mxCell>
        <mxCell id="V9az3QKuatXGRMzXTHM4-14" style="edgeStyle=orthogonalEdgeStyle;rounded=0;orthogonalLoop=1;jettySize=auto;html=1;exitX=1;exitY=0.5;exitDx=0;exitDy=0;endArrow=none;endFill=0;fillColor=#d5e8d4;strokeColor=#82b366;strokeWidth=2;" parent="1" source="V9az3QKuatXGRMzXTHM4-13" edge="1">
          <mxGeometry relative="1" as="geometry">
            <mxPoint x="430" y="499.8571428571429" as="targetPoint" />
          </mxGeometry>
        </mxCell>
        <mxCell id="V9az3QKuatXGRMzXTHM4-13" value="ToF servo" style="ellipse;whiteSpace=wrap;html=1;" parent="1" vertex="1">
          <mxGeometry x="330" y="480" width="70" height="40" as="geometry" />
        </mxCell>
        <mxCell id="V9az3QKuatXGRMzXTHM4-19" style="edgeStyle=orthogonalEdgeStyle;rounded=0;orthogonalLoop=1;jettySize=auto;html=1;exitX=1;exitY=0.5;exitDx=0;exitDy=0;endArrow=none;endFill=0;fillColor=#d5e8d4;strokeColor=#82b366;strokeWidth=2;exitPerimeter=0;" parent="1" source="6K85rVYa6wecsWMBO-P3-17" edge="1">
          <mxGeometry relative="1" as="geometry">
            <mxPoint x="430" y="554.8571428571429" as="targetPoint" />
            <mxPoint x="400" y="555" as="sourcePoint" />
          </mxGeometry>
        </mxCell>
        <mxCell id="V9az3QKuatXGRMzXTHM4-22" style="rounded=0;orthogonalLoop=1;jettySize=auto;html=1;exitX=0.5;exitY=1;exitDx=0;exitDy=0;entryX=0.25;entryY=0;entryDx=0;entryDy=0;endArrow=none;endFill=0;" parent="1" source="V9az3QKuatXGRMzXTHM4-21" target="V9az3QKuatXGRMzXTHM4-1" edge="1">
          <mxGeometry relative="1" as="geometry" />
        </mxCell>
        <mxCell id="V9az3QKuatXGRMzXTHM4-21" value="Servo" style="ellipse;whiteSpace=wrap;html=1;" parent="1" vertex="1">
          <mxGeometry x="310" y="170" width="70" height="40" as="geometry" />
        </mxCell>
        <mxCell id="V9az3QKuatXGRMzXTHM4-32" style="edgeStyle=none;rounded=0;orthogonalLoop=1;jettySize=auto;html=1;exitX=1;exitY=0.5;exitDx=0;exitDy=0;strokeColor=#82b366;align=center;verticalAlign=middle;fontFamily=Helvetica;fontSize=11;fontColor=default;labelBackgroundColor=default;endArrow=none;endFill=0;fillColor=#d5e8d4;strokeWidth=2;" parent="1" source="V9az3QKuatXGRMzXTHM4-31" edge="1">
          <mxGeometry relative="1" as="geometry">
            <mxPoint x="430" y="599.8571428571429" as="targetPoint" />
          </mxGeometry>
        </mxCell>
        <mxCell id="V9az3QKuatXGRMzXTHM4-31" value="JST I2C" style="shape=parallelogram;perimeter=parallelogramPerimeter;whiteSpace=wrap;html=1;fixedSize=1;size=20;" parent="1" vertex="1">
          <mxGeometry x="320" y="585" width="90" height="30" as="geometry" />
        </mxCell>
        <mxCell id="V9az3QKuatXGRMzXTHM4-34" style="edgeStyle=none;rounded=0;orthogonalLoop=1;jettySize=auto;html=1;exitX=1;exitY=0.75;exitDx=0;exitDy=0;entryX=0;entryY=0.25;entryDx=0;entryDy=0;strokeColor=#0066CC;align=center;verticalAlign=middle;fontFamily=Helvetica;fontSize=11;fontColor=default;labelBackgroundColor=default;endArrow=none;endFill=0;fillColor=#fff2cc;strokeWidth=2;" parent="1" source="V9az3QKuatXGRMzXTHM4-33" target="V9az3QKuatXGRMzXTHM4-1" edge="1">
          <mxGeometry relative="1" as="geometry" />
        </mxCell>
        <mxCell id="6K85rVYa6wecsWMBO-P3-13" value="&lt;font color=&quot;#004c99&quot;&gt;UART&lt;/font&gt;" style="edgeLabel;html=1;align=center;verticalAlign=middle;resizable=0;points=[];" vertex="1" connectable="0" parent="V9az3QKuatXGRMzXTHM4-34">
          <mxGeometry x="-0.1527" relative="1" as="geometry">
            <mxPoint as="offset" />
          </mxGeometry>
        </mxCell>
        <mxCell id="V9az3QKuatXGRMzXTHM4-33" value="JST UART" style="shape=parallelogram;perimeter=parallelogramPerimeter;whiteSpace=wrap;html=1;fixedSize=1;size=20;" parent="1" vertex="1">
          <mxGeometry x="150" y="250" width="90" height="30" as="geometry" />
        </mxCell>
        <mxCell id="V9az3QKuatXGRMzXTHM4-36" value="&quot;tirette&quot;" style="ellipse;whiteSpace=wrap;html=1;fontFamily=Helvetica;fontSize=11;fontColor=default;labelBackgroundColor=default;" parent="1" vertex="1">
          <mxGeometry x="150" y="285" width="60" height="30" as="geometry" />
        </mxCell>
        <mxCell id="V9az3QKuatXGRMzXTHM4-37" style="edgeStyle=none;rounded=0;orthogonalLoop=1;jettySize=auto;html=1;exitX=1;exitY=0.5;exitDx=0;exitDy=0;entryX=0;entryY=0.5;entryDx=0;entryDy=0;strokeColor=default;align=center;verticalAlign=middle;fontFamily=Helvetica;fontSize=11;fontColor=default;labelBackgroundColor=default;endArrow=none;endFill=0;" parent="1" source="V9az3QKuatXGRMzXTHM4-36" target="V9az3QKuatXGRMzXTHM4-1" edge="1">
          <mxGeometry relative="1" as="geometry" />
        </mxCell>
        <mxCell id="6K85rVYa6wecsWMBO-P3-5" style="rounded=0;orthogonalLoop=1;jettySize=auto;html=1;exitX=0.5;exitY=1;exitDx=0;exitDy=0;entryX=0.5;entryY=0;entryDx=0;entryDy=0;endArrow=none;endFill=0;fillColor=#d80073;strokeColor=#A50040;" edge="1" parent="1" source="6K85rVYa6wecsWMBO-P3-1" target="6K85rVYa6wecsWMBO-P3-4">
          <mxGeometry relative="1" as="geometry" />
        </mxCell>
        <mxCell id="6K85rVYa6wecsWMBO-P3-1" value="Alim 5V / USB&lt;div&gt;(Batterie)&lt;/div&gt;" style="rounded=0;whiteSpace=wrap;html=1;fillColor=#d80073;fontColor=#ffffff;strokeColor=#A50040;" vertex="1" parent="1">
          <mxGeometry x="400" y="40" width="120" height="60" as="geometry" />
        </mxCell>
        <mxCell id="6K85rVYa6wecsWMBO-P3-6" style="rounded=0;orthogonalLoop=1;jettySize=auto;html=1;exitX=0;exitY=1;exitDx=0;exitDy=0;entryX=0.5;entryY=0;entryDx=0;entryDy=0;endArrow=none;endFill=0;fillColor=#d80073;strokeColor=#A50040;" edge="1" parent="1" source="6K85rVYa6wecsWMBO-P3-4" target="V9az3QKuatXGRMzXTHM4-1">
          <mxGeometry relative="1" as="geometry" />
        </mxCell>
        <mxCell id="6K85rVYa6wecsWMBO-P3-7" style="rounded=0;orthogonalLoop=1;jettySize=auto;html=1;exitX=1;exitY=1;exitDx=0;exitDy=0;entryX=0.25;entryY=0;entryDx=0;entryDy=0;endArrow=none;endFill=0;fillColor=#d80073;strokeColor=#A50040;" edge="1" parent="1" source="6K85rVYa6wecsWMBO-P3-4" target="V9az3QKuatXGRMzXTHM4-2">
          <mxGeometry relative="1" as="geometry" />
        </mxCell>
        <mxCell id="6K85rVYa6wecsWMBO-P3-16" style="rounded=0;orthogonalLoop=1;jettySize=auto;html=1;exitX=0;exitY=0.5;exitDx=0;exitDy=0;entryX=1;entryY=0;entryDx=0;entryDy=0;fillColor=#d80073;strokeColor=#A50040;endArrow=none;endFill=0;" edge="1" parent="1" source="6K85rVYa6wecsWMBO-P3-4" target="V9az3QKuatXGRMzXTHM4-21">
          <mxGeometry relative="1" as="geometry" />
        </mxCell>
        <mxCell id="6K85rVYa6wecsWMBO-P3-4" value="BAU" style="ellipse;whiteSpace=wrap;html=1;fillColor=#d80073;fontColor=#ffffff;strokeColor=#A50040;" vertex="1" parent="1">
          <mxGeometry x="430" y="130" width="64" height="40" as="geometry" />
        </mxCell>
        <mxCell id="6K85rVYa6wecsWMBO-P3-17" value="Ecran LCD" style="ellipse;whiteSpace=wrap;html=1;" vertex="1" parent="1">
          <mxGeometry x="330" y="530" width="70" height="40" as="geometry" />
        </mxCell>
        <mxCell id="6K85rVYa6wecsWMBO-P3-19" value="encodeur MotG" style="ellipse;whiteSpace=wrap;html=1;" vertex="1" parent="1">
          <mxGeometry x="580" y="330" width="110" height="40" as="geometry" />
        </mxCell>
        <mxCell id="6K85rVYa6wecsWMBO-P3-20" value="encodeur MotD" style="ellipse;whiteSpace=wrap;html=1;" vertex="1" parent="1">
          <mxGeometry x="580" y="380" width="110" height="40" as="geometry" />
        </mxCell>
        <mxCell id="6K85rVYa6wecsWMBO-P3-23" value="UART -&amp;gt; Bluetooth possiblement" style="text;html=1;align=center;verticalAlign=middle;whiteSpace=wrap;rounded=0;" vertex="1" parent="1">
          <mxGeometry x="140" y="215" width="110" height="30" as="geometry" />
        </mxCell>
        <mxCell id="6K85rVYa6wecsWMBO-P3-24" value="Asser basique" style="text;html=1;align=center;verticalAlign=middle;whiteSpace=wrap;rounded=0;" vertex="1" parent="1">
          <mxGeometry x="690" y="360" width="110" height="30" as="geometry" />
        </mxCell>
        <mxCell id="6K85rVYa6wecsWMBO-P3-28" style="rounded=0;orthogonalLoop=1;jettySize=auto;html=1;exitX=1;exitY=0.5;exitDx=0;exitDy=0;entryX=0;entryY=0.75;entryDx=0;entryDy=0;endArrow=none;endFill=0;" edge="1" parent="1" source="6K85rVYa6wecsWMBO-P3-27" target="V9az3QKuatXGRMzXTHM4-1">
          <mxGeometry relative="1" as="geometry" />
        </mxCell>
        <mxCell id="6K85rVYa6wecsWMBO-P3-29" value="4 fils" style="edgeLabel;html=1;align=center;verticalAlign=middle;resizable=0;points=[];" vertex="1" connectable="0" parent="6K85rVYa6wecsWMBO-P3-28">
          <mxGeometry x="0.2849" relative="1" as="geometry">
            <mxPoint as="offset" />
          </mxGeometry>
        </mxCell>
        <mxCell id="6K85rVYa6wecsWMBO-P3-27" value="DIP Switch" style="ellipse;whiteSpace=wrap;html=1;fontFamily=Helvetica;fontSize=11;fontColor=default;labelBackgroundColor=default;" vertex="1" parent="1">
          <mxGeometry x="140" y="320" width="70" height="30" as="geometry" />
        </mxCell>
      </root>
    </mxGraphModel>
  </diagram>
</mxfile>
